# xmcd
#
# Track frame offsets:
#	150
#	5799
#	7627
#	10469
#	12689
#	16084
#	19109
#	22148
#	25830
#	28268
#	33957
#	38241
#	41948
#	45470
#	49231
#	55251
#	57639
#	59540
#	63843
#	66194
#	69821
#	72540
#	78529
#	81794
#	85047
#	87507
#	90905
#	95029
#	98235
#	101213
#
# Disc length: 1423 seconds
#
# Revision: 1
# Processed by: cddbd v1.5.2PL0 Copyright (c) Steve Scherf et al.
# Submitted via: audiograbber 1.83.01
#
DISCID=90058d1e
DTITLE=삼성 전래놀이동요 - 삼성출판사 전래놀이동요
DYEAR=2006
DGENRE=동요
TTITLE0=꼭꼭 숨어라
TTITLE1=무엇 먹고 살았니
TTITLE2=동 동 동대문
TTITLE3=꼬마야 꼬마야
TTITLE4=똑똑똑 누구십니까
TTITLE5=두껍아 두껍아
TTITLE6=꼬리 따기
TTITLE7=앞에 가면 양반
TTITLE8=참깨 들깨
TTITLE9=어디까지 왔나
TTITLE10=아침 방아
TTITLE11=잠자리 꽁꽁
TTITLE12=달강달강
TTITLE13=대추 노래
TTITLE14=떡 떡 떼기야
TTITLE15=꼬부랑 할머니
TTITLE16=가자 가자 감나무
TTITLE17=고모네 집
TTITLE18=나무 타령
TTITLE19=나물 타령
TTITLE20=풀각시 노래
TTITLE21=동그랑땡
TTITLE22=떡 해 먹자 부-엉
TTITLE23=꿩꿩 장서방
TTITLE24=실꾸리
TTITLE25=길로 길로 가다가
TTITLE26=우리 집에 왜 왔니
TTITLE27=해야 해야
TTITLE28=별 하나 뚝 딱
TTITLE29=자장자장
EXTD=
EXTT0=
EXTT1=
EXTT2=
EXTT3=
EXTT4=
EXTT5=
EXTT6=
EXTT7=
EXTT8=
EXTT9=
EXTT10=
EXTT11=
EXTT12=
EXTT13=
EXTT14=
EXTT15=
EXTT16=
EXTT17=
EXTT18=
EXTT19=
EXTT20=
EXTT21=
EXTT22=
EXTT23=
EXTT24=
EXTT25=
EXTT26=
EXTT27=
EXTT28=
EXTT29=
PLAYORDER=
